<svg xmlns="http://www.w3.org/2000/svg" xmlns:xlink="http://www.w3.org/1999/xlink" width="90" height="97" viewBox="0 0 90 97"><defs><path id="a" d="M1165.98 3998.61c6.67-2.91 12.93-2.45 19.93-.79-6 12.22-15.91 19.67-28.94 22.73a32.34 32.34 0 0 0-2.49 16.1l-3.67.36c-.64-6.53.48-13.92 3.7-19.72 0 0 2-.37 3.84-.92 8.8-2.65 17.24-7.91 22.07-15.96-7.16-1.05-11.77.5-17.4 4.25 0 0-.73-6.88-2.01-11.13-1.22-4.05-3.04-7.74-5.48-9.33-5.21 3.39-6.84 14.83-7.4 20.47 0 0-2.96-1.97-3.69-2.33-4.19-2.07-9.13-2.61-13.74-1.93 4.87 8.17 15.1 15.03 24.58 16.94l-.94 3.55-13.95-4.55c-7.91 1.71-41.64-5.86-26.58-39.74.19-13.83 8.38-23.79 21.59-25.53a24.03 24.03 0 0 1 19.75-11.09 23.63 23.63 0 0 1 19.59 11.09c13.21 1.75 21.39 11.7 21.58 25.53 8.02 18.07 1.78 28.54-7.3 34.17-8.73 5.41-19.83 6.24-21.69 6.04l.39-3.66c1.14.13 11.4-.57 19.35-5.5 11.61-7.2 10.84-18.59 5.57-30.25v-.39c-.06-13-7.84-21.7-20.17-22.44 0 0-.79-1.51-1.41-2.39a19.89 19.89 0 0 0-15.95-8.52c-7.59.17-13.99 4.45-17.46 10.91 0 0-2.21.14-3.96.55-10.65 2.55-16.15 10.62-16.2 21.89v.39c-9.34 20.66 1.56 34.73 20.17 35.82 1.51.08 1.27.15 2.32-.89l15.51 5.06-.93 3.55c-11.38-2.25-23.22-10.66-28.33-21.06l-1.01-2.07c7-1.66 13.25-2.12 19.92.79 1.15-6.8 3.49-15.43 10.39-18.52 6.9 3.09 9.27 11.72 10.45 18.52z"/><linearGradient id="b" x1="1109.98" x2="1199.98" y1="3960.01" y2="4016.99" gradientUnits="userSpaceOnUse"><stop offset="0" stop-color="#86add3"/><stop offset="1" stop-color="#9fcef6"/></linearGradient></defs><desc>Generated with Avocode.</desc><g transform="translate(-1110 -3940)"><use fill="#d2ddeb" xlink:href="#a"/><use fill="url(#b)" xlink:href="#a"/></g></svg>