<svg xmlns="http://www.w3.org/2000/svg" width="82" height="96" viewBox="0 0 82 96"><defs><linearGradient id="a" x1="363.03" x2="445.03" y1="3962.48" y2="4013.72" gradientUnits="userSpaceOnUse"><stop offset="0" stop-color="#86add3"/><stop offset="1" stop-color="#9fcef6"/></linearGradient></defs><path fill="#d2ddeb" d="M81.72 79.88l-14.1-24.64a3.96 3.96 0 0 0 2.2-3.89l-1.06-8.72 6-6.26a3.88 3.88 0 0 0 .1-5.21l-6-6.45 1.24-8.81c.19-1.9-1.14-3.8-3.05-4.17l-8.67-1.71-4.2-7.68c-.85-1.8-2.95-2.56-4.85-1.8h-.1l-8 3.7L33.4.44a3.75 3.75 0 0 0-5.05 1.52l-4.29 7.68-8.67 1.52a3.9 3.9 0 0 0-3.14 4.26l1.05 8.72-6 6.26a3.88 3.88 0 0 0-.1 5.21l6 6.45-1.24 8.82a3.9 3.9 0 0 0 2.48 3.98L.25 79.88c-.38.57-.28 1.33 0 1.9.38.57.95.95 1.62.95h15.25l6.95 12.04c.39.57.96.95 1.62.95.67 0 1.34-.38 1.62-.95l13.63-23.13 13.63 23.41c.38.57.95.95 1.62.95.66 0 1.33-.38 1.62-.95l6.95-12.32h15.25c.67 0 1.33-.38 1.62-.95.48-.57.48-1.33.1-1.9zM25.8 90.03l-5.9-10.15a1.98 1.98 0 0 0-1.63-.94H5.11l13.15-23.13 5.43.94 4.2 7.68a3.76 3.76 0 0 0 4.86 1.8h.1l3.9-1.8 1.9 3.32zm5.53-27.21h-.1l-4.2-7.87a3.56 3.56 0 0 0-2.66-1.8l-8.77-1.61 1.24-8.72a3.68 3.68 0 0 0-.95-3.13l-5.9-6.45 6-6.25a3.56 3.56 0 0 0 1.04-3.13l-1.05-8.63s0-.09.1-.19l8.67-1.51a3.87 3.87 0 0 0 2.67-1.9l4.29-7.68 7.81 3.79c1.05.57 2.38.57 3.43 0l7.91-3.6h.1l4.19 7.87c.57.95 1.52 1.71 2.57 1.8l8.67 1.71-1.24 8.72c-.19 1.14.2 2.37.96 3.13l6 6.44-6.1 6.26a3.55 3.55 0 0 0-1.05 3.13L66 51.92l-8.57 1.42c-1.05.19-2.1.85-2.67 1.9l-4.29 7.68-7.81-3.8a3.66 3.66 0 0 0-3.44 0zm32.4 16.12c-.67 0-1.34.38-1.63.94l-5.9 10.43-13.44-23.13c-.1-.28-.19-.47-.38-.66l-2.1-3.7.67-.28 7.81 3.79c.58.28 1.15.38 1.72.38 1.33 0 2.67-.67 3.33-1.9l4.3-7.68 5.71-1.04 13.05 22.85zM60 33.43a19.07 19.07 0 0 0-38.12 0 19.06 19.06 0 0 0 38.12 0zM40.94 48.6A15.25 15.25 0 0 1 25.7 33.43a15.25 15.25 0 0 1 30.5 0c0 8.35-6.86 15.17-15.25 15.17z"/><path fill="url(#a)" d="M422.72 4014.88l-14.1-24.64a3.96 3.96 0 0 0 2.2-3.89l-1.06-8.72 6-6.26a3.88 3.88 0 0 0 .1-5.21l-6-6.45 1.24-8.81c.19-1.9-1.14-3.8-3.05-4.17l-8.67-1.71-4.2-7.68c-.85-1.8-2.95-2.56-4.85-1.8h-.1l-8 3.7-7.82-3.8a3.75 3.75 0 0 0-5.05 1.52l-4.29 7.68-8.67 1.52a3.9 3.9 0 0 0-3.14 4.26l1.05 8.72-6 6.26a3.88 3.88 0 0 0-.1 5.21l6 6.45-1.24 8.82a3.9 3.9 0 0 0 2.48 3.98l-14.2 25.02c-.38.57-.28 1.33 0 1.9.38.57.95.95 1.62.95h15.25l6.95 12.04c.39.57.96.95 1.62.95.67 0 1.34-.38 1.62-.95l13.63-23.13 13.63 23.41c.38.57.95.95 1.62.95.66 0 1.33-.38 1.62-.95l6.95-12.32h15.25c.67 0 1.33-.38 1.62-.95.48-.57.48-1.33.1-1.9zm-55.93 10.15l-5.9-10.15a1.98 1.98 0 0 0-1.63-.94h-13.15l13.15-23.13 5.43.94 4.2 7.68a3.76 3.76 0 0 0 4.86 1.8h.1l3.9-1.8 1.9 3.32zm5.53-27.21h-.1l-4.2-7.87a3.56 3.56 0 0 0-2.66-1.8l-8.77-1.61 1.24-8.72a3.68 3.68 0 0 0-.95-3.13l-5.9-6.45 6-6.25a3.56 3.56 0 0 0 1.04-3.13l-1.05-8.63s0-.09.1-.19l8.67-1.51a3.87 3.87 0 0 0 2.67-1.9l4.29-7.68 7.81 3.79c1.05.57 2.38.57 3.43 0l7.91-3.6h.1l4.19 7.87c.57.95 1.52 1.71 2.57 1.8l8.67 1.71-1.24 8.72c-.19 1.14.2 2.37.96 3.13l6 6.44-6.1 6.26a3.55 3.55 0 0 0-1.05 3.13l1.05 8.72-8.57 1.42c-1.05.19-2.1.85-2.67 1.9l-4.29 7.68-7.81-3.8a3.66 3.66 0 0 0-3.44 0zm32.4 16.12c-.67 0-1.34.38-1.63.94l-5.9 10.43-13.44-23.13c-.1-.28-.19-.47-.38-.66l-2.1-3.7.67-.28 7.81 3.79c.58.28 1.15.38 1.72.38 1.33 0 2.67-.67 3.33-1.9l4.3-7.68 5.71-1.04 13.05 22.85zm-3.72-45.51a19.07 19.07 0 0 0-38.12 0 19.06 19.06 0 0 0 38.12 0zm-19.06 15.17a15.25 15.25 0 0 1-15.25-15.17 15.25 15.25 0 0 1 30.5 0c0 8.35-6.86 15.17-15.25 15.17z" transform="translate(-341 -3935)"/></svg>