<svg xmlns="http://www.w3.org/2000/svg" width="106" height="97" viewBox="0 0 106 97"><defs><linearGradient id="a" x1="739.48" x2="845.48" y1="3955.53" y2="4021.77" gradientUnits="userSpaceOnUse"><stop offset="0" stop-color="#86add3"/><stop offset="1" stop-color="#9fcef6"/></linearGradient></defs><path fill="#d2ddeb" d="M26 33v-4h19v4zm-7 0v-4h5v4zm29 0v-4h4v4zm17 1v-3h19v3zM51 57v-4h4v4zm-30 0v-4h4v4zm60 0v-4h4v4zm14.73 36.73H106V97H0v-3.27h10.27V65.39H4.33a3.8 3.8 0 0 1-3.79-3.81V48.5c0-1.52.89-2.83 2.16-3.44v-8h9.74V0h46.5v10.9h34.62v26.16h9.74v8a3.81 3.81 0 0 1 2.16 3.44v13.08a3.8 3.8 0 0 1-3.79 3.81h-5.94zm6.49-32.15v-4.91h-8.79a10.33 10.33 0 0 1-2.66 5.45h10.9c.3 0 .54-.25.54-.54zm-.55-13.62h-10.9a10.3 10.3 0 0 1 2.66 5.44h8.78v-4.9c0-.3-.24-.54-.54-.54zM70.85 14.17v9.81h7.57v-9.81zm-11.9 22.89h31.37V14.17h-8.66v13.08H67.6V14.17h-8.65zM44.89 6.54H55.7V3.27H44.9zM29.75 9.81h11.9V3.27h-11.9zm0 7.63h11.9v-4.36h-11.9zM15.68 6.54H26.5V3.27H15.68zm0 30.52H55.7V9.81H44.9v10.9H26.5V9.81H15.68zm-9.73 7.63h94.1v-4.36H5.95zm77.34 3.27a7.06 7.06 0 0 0-7.04 7.08c0 3.9 3.16 7.08 7.04 7.08a7.06 7.06 0 0 0 7.03-7.08 7.06 7.06 0 0 0-7.03-7.08zm-7.49 0H60.48a10.3 10.3 0 0 1 2.67 5.44h9.99a10.3 10.3 0 0 1 2.66-5.44zm-2.66 8.71h-10a10.33 10.33 0 0 1-2.66 5.45H75.8a10.33 10.33 0 0 1-2.66-5.45zM53 47.96a7.06 7.06 0 0 0-7.03 7.08c0 3.9 3.15 7.08 7.03 7.08a7.06 7.06 0 0 0 7.03-7.08A7.06 7.06 0 0 0 53 47.96zm-7.48 0H30.2a10.3 10.3 0 0 1 2.66 5.44h10a10.3 10.3 0 0 1 2.66-5.44zm-2.67 8.71h-9.99a10.32 10.32 0 0 1-2.66 5.45h15.32a10.33 10.33 0 0 1-2.67-5.45zm-20.14-8.71a7.06 7.06 0 0 0-7.03 7.08c0 3.9 3.16 7.08 7.03 7.08a7.06 7.06 0 0 0 7.04-7.08 7.06 7.06 0 0 0-7.04-7.08zM3.8 53.4h8.78a10.3 10.3 0 0 1 2.66-5.44H4.33c-.3 0-.54.24-.54.54zm11.44 8.72a10.34 10.34 0 0 1-2.66-5.45H3.79v4.91c0 .29.24.54.54.54zm3.7 31.61V74.11h-5.41v19.62zm64.9 0V74.11H22.17v19.62zm8.65-19.62h-5.4v19.62h5.4zm0-8.72H13.52v5.45h78.96z"/><path fill="url(#a)" d="M737 3968v-4h19v4zm-7 0v-4h5v4zm29 0v-4h4v4zm17 1v-3h19v3zm-14 23v-4h4v4zm-30 0v-4h4v4zm60 0v-4h4v4zm14.73 36.73H817v3.27H711v-3.27h10.27v-28.34h-5.94a3.8 3.8 0 0 1-3.79-3.81v-13.08c0-1.52.89-2.83 2.16-3.44v-8h9.74V3935h46.5v10.9h34.62v26.16h9.74v8a3.81 3.81 0 0 1 2.16 3.44v13.08a3.8 3.8 0 0 1-3.79 3.81h-5.94zm6.49-32.15v-4.91h-8.79a10.33 10.33 0 0 1-2.66 5.45h10.9c.3 0 .54-.25.54-.54zm-.55-13.62h-10.9a10.3 10.3 0 0 1 2.66 5.44h8.78v-4.9c0-.3-.24-.54-.54-.54zm-30.82-33.79v9.81h7.57v-9.81zm-11.9 22.89h31.37v-22.89h-8.66v13.08H778.6v-13.08h-8.65zm-14.06-30.52h10.81v-3.27H755.9zm-15.14 3.27h11.9v-6.54h-11.9zm0 7.63h11.9v-4.36h-11.9zm-14.07-10.9h10.82v-3.27h-10.82zm0 30.52h40.02v-27.25H755.9v10.9H737.5v-10.9h-10.82zm-9.73 7.63h94.1v-4.36h-94.1zm77.34 3.27a7.06 7.06 0 0 0-7.03 7.08c0 3.9 3.15 7.08 7.03 7.08a7.06 7.06 0 0 0 7.03-7.08 7.06 7.06 0 0 0-7.03-7.08zm-7.49 0h-15.32a10.3 10.3 0 0 1 2.67 5.44h9.99a10.3 10.3 0 0 1 2.66-5.44zm-2.66 8.71h-10a10.33 10.33 0 0 1-2.66 5.45h15.32a10.33 10.33 0 0 1-2.66-5.45zm-20.14-8.71a7.06 7.06 0 0 0-7.03 7.08c0 3.9 3.15 7.08 7.03 7.08a7.06 7.06 0 0 0 7.03-7.08 7.06 7.06 0 0 0-7.03-7.08zm-7.48 0H741.2a10.3 10.3 0 0 1 2.66 5.44h10a10.3 10.3 0 0 1 2.66-5.44zm-2.67 8.71h-9.99a10.32 10.32 0 0 1-2.66 5.45h15.32a10.33 10.33 0 0 1-2.67-5.45zm-20.14-8.71a7.06 7.06 0 0 0-7.03 7.08c0 3.9 3.16 7.08 7.03 7.08a7.06 7.06 0 0 0 7.03-7.08 7.06 7.06 0 0 0-7.03-7.08zm-18.92 5.44h8.78a10.3 10.3 0 0 1 2.66-5.44h-10.9c-.3 0-.54.24-.54.54zm11.44 8.72a10.34 10.34 0 0 1-2.66-5.45h-8.78v4.91c0 .29.24.54.54.54zm3.7 31.61v-19.62h-5.41v19.62zm64.9 0v-19.62h-61.66v19.62zm8.65-19.62h-5.4v19.62h5.4zm0-8.72h-78.96v5.45h78.96z" transform="translate(-711 -3935)"/></svg>