<svg xmlns="http://www.w3.org/2000/svg" width="192" height="83" viewBox="0 0 192 83"><defs><linearGradient id="a" x1="1522.75" x2="1652.41" y1="3949.29" y2="4030.31" gradientUnits="userSpaceOnUse"><stop offset="0" stop-color="#86add3"/><stop offset="1" stop-color="#9fcef6"/></linearGradient></defs><path fill="#d2ddeb" d="M2.69 45.95s.08-.45.26-1.02c.92-2.82 3.04-5.2 6.29-5.2H51.7c3.52 0 5.99 3.02 6.55 6.22l2.42 22.76a11.12 11.12 0 0 1-11.05 13.01H11.24A11.12 11.12 0 0 1 .01 70.71c0-.93.12-1.84.34-2.7zm52.45.47c-.38-1.67-1.49-3.54-3.44-3.54H9.24c-1.96 0-3.07 1.87-3.45 3.54L4.12 62.19a11.34 11.34 0 0 1 7.12-2.49h38.38c2.73 0 5.25.96 7.2 2.56zM3.38 69.17h-.07c-.1.5-.16 1.01-.16 1.54 0 4.3 3.58 7.86 8.09 7.86h38.38a7.97 7.97 0 0 0 8.09-7.86c0-4.3-3.57-7.86-8.09-7.86H11.24a8.05 8.05 0 0 0-7.8 5.78zm11.44 7.1c-3.23 0-6.4-2.21-6.4-5.56 0-3.35 3.17-5.56 6.4-5.56h31.09c3.23 0 6.4 2.21 6.4 5.56 0 3.35-3.17 5.56-6.4 5.56zm0-7.97c-2.1 0-3.26 1.36-3.26 2.41s1.16 2.41 3.26 2.41h31.09c2.1 0 3.26-1.36 3.26-2.41s-1.16-2.41-3.26-2.41zm173.71.64l-.03-.24a8.06 8.06 0 0 0-7.74-5.58h-38.38a8.06 8.06 0 0 0-7.77 5.66l-.02.18h-.03a7.64 7.64 0 0 0-.27 2.02c0 4.3 3.58 7.86 8.09 7.86h38.38a7.98 7.98 0 0 0 8.09-7.86c0-.7-.1-1.4-.28-2.04zm-1-8.7c-.5.36-1.02.69-1.58.97.65.34 1.26.73 1.83 1.18zm-51.84.05l-.26 2.04c.55-.42 1.14-.8 1.76-1.11a11.3 11.3 0 0 1-1.5-.93zm-2.79-2.93a10.8 10.8 0 0 1-1.41-8.6l2.34-22.07s.07-.45.26-1.02c.92-2.82 3.04-5.2 6.29-5.2h42.45c3.52 0 6 3.02 6.55 6.22l2.4 22.64a10.9 10.9 0 0 1-1.44 7.87l1.25 10.85c.26.93.4 1.91.4 2.93 0 6.12-5.07 11.01-11.23 11.01h-38.38a11.12 11.12 0 0 1-11.23-11.01c0-1 .14-1.97.39-2.89zm55.79-7.45v-.04a8.03 8.03 0 0 0-7.93-6.28h-38.38a8.05 8.05 0 0 0-7.8 5.78l-.06.54h-.07c-.1.5-.16 1.01-.16 1.54 0 4.3 3.58 7.86 8.09 7.86h38.38a7.98 7.98 0 0 0 8.09-7.86c0-.53-.05-1.04-.16-1.54zm-2.41-22.75c-.38-1.67-1.49-3.54-3.45-3.54h-42.45c-1.96 0-3.07 1.87-3.45 3.54l-1.67 15.77a11.34 11.34 0 0 1 7.12-2.49h38.38c2.73 0 5.24.96 7.2 2.56zm-40.32 29.85c-3.23 0-6.4-2.21-6.4-5.56 0-3.35 3.17-5.56 6.4-5.56h31.09c3.23 0 6.39 2.21 6.39 5.56 0 3.35-3.16 5.56-6.39 5.56zm0-7.97c-2.1 0-3.26 1.36-3.26 2.41s1.16 2.41 3.26 2.41h31.09c2.1 0 3.26-1.36 3.26-2.41s-1.16-2.41-3.26-2.41zm0 27.5c-3.23 0-6.4-2.21-6.4-5.56 0-3.35 3.17-5.56 6.4-5.56h31.09c3.23 0 6.39 2.21 6.39 5.56 0 3.35-3.16 5.56-6.39 5.56zm0-7.97c-2.1 0-3.26 1.36-3.26 2.41s1.16 2.41 3.26 2.41h31.09c2.1 0 3.26-1.36 3.26-2.41s-1.16-2.41-3.26-2.41zm-23.24-19.1l-.03-.24a8.06 8.06 0 0 0-7.74-5.58H76.57a8.06 8.06 0 0 0-7.77 5.66l-.02.18h-.03a7.64 7.64 0 0 0-.27 2.02 7.98 7.98 0 0 0 8.09 7.85h38.38a7.98 7.98 0 0 0 8.09-7.85c0-.7-.1-1.4-.28-2.04zm-1-8.71c-.5.37-1.02.7-1.57.98.64.33 1.25.72 1.82 1.17zm-51.84.06l-.26 2.03c.55-.42 1.13-.8 1.75-1.11a11.3 11.3 0 0 1-1.49-.92zM67.1 37.9a10.81 10.81 0 0 1-1.41-8.61L68 7.21s.08-.44.27-1.02c.92-2.81 3.04-5.2 6.29-5.2h42.45c3.52 0 6 3.03 6.55 6.22l2.4 22.65a10.88 10.88 0 0 1-1.44 7.87l1.25 10.84a10.86 10.86 0 0 1-1.25 8.68l1.25 10.81c.26.93.4 1.91.4 2.93 0 6.13-5.07 11.02-11.23 11.02H76.57a11.13 11.13 0 0 1-11.23-11.02c0-1 .14-1.97.39-2.89l1.36-10.69a10.8 10.8 0 0 1-1.36-8.8zm55.63 31.06l-.03-.24a8.06 8.06 0 0 0-7.74-5.57H76.57a8.06 8.06 0 0 0-7.77 5.65l-.02.18h-.03a7.62 7.62 0 0 0-.27 2.02c0 4.3 3.58 7.86 8.09 7.86h38.38a7.98 7.98 0 0 0 8.09-7.86c0-.7-.1-1.4-.28-2.04zm-1-8.66c-.48.36-1 .68-1.53.96.63.33 1.23.71 1.78 1.15zm-51.84.06l-.26 2c.54-.42 1.1-.79 1.71-1.1-.5-.26-1-.57-1.45-.9zm53-29.91v-.05a8.04 8.04 0 0 0-7.93-6.27H76.57a8.06 8.06 0 0 0-7.8 5.77l-.06.55h-.07c-.1.49-.16 1-.16 1.53 0 4.3 3.58 7.86 8.09 7.86h38.38a7.98 7.98 0 0 0 8.09-7.86c0-.52-.05-1.03-.15-1.53zm-2.41-22.75c-.38-1.68-1.49-3.54-3.45-3.54H74.57c-1.96 0-3.07 1.86-3.45 3.54l-1.67 15.77a11.34 11.34 0 0 1 7.12-2.5h38.38c2.73 0 5.24.96 7.2 2.56zM80.15 37.54c-3.23 0-6.4-2.22-6.4-5.56 0-3.35 3.17-5.57 6.4-5.57h31.08c3.24 0 6.4 2.22 6.4 5.57 0 3.34-3.16 5.56-6.4 5.56zm0-7.97c-2.1 0-3.26 1.35-3.26 2.41 0 1.05 1.16 2.4 3.26 2.4h31.08c2.11 0 3.26-1.35 3.26-2.4 0-1.06-1.15-2.41-3.26-2.41zm0 27.5c-3.23 0-6.4-2.22-6.4-5.56 0-3.35 3.17-5.57 6.4-5.57h31.08c3.24 0 6.4 2.22 6.4 5.57 0 3.34-3.16 5.56-6.4 5.56zm0-7.97c-2.1 0-3.26 1.35-3.26 2.41 0 1.05 1.16 2.4 3.26 2.4h31.08c2.11 0 3.26-1.35 3.26-2.4 0-1.06-1.15-2.41-3.26-2.41zm0 27.46c-3.23 0-6.4-2.22-6.4-5.57s3.17-5.56 6.4-5.56h31.08c3.24 0 6.4 2.21 6.4 5.56 0 3.35-3.16 5.57-6.4 5.57zm0-7.98c-2.1 0-3.26 1.36-3.26 2.41 0 1.06 1.16 2.41 3.26 2.41h31.08c2.11 0 3.26-1.35 3.26-2.41 0-1.05-1.15-2.41-3.26-2.41z"/><path fill="url(#a)" d="M1442.69 3989.95s.08-.45.26-1.02c.92-2.82 3.04-5.2 6.29-5.2h42.46c3.52 0 5.99 3.02 6.55 6.22l2.42 22.76a11.12 11.12 0 0 1-11.05 13.01h-38.38a11.12 11.12 0 0 1-11.23-11.01c0-.93.12-1.84.34-2.7zm52.45.47c-.38-1.67-1.49-3.54-3.44-3.54h-42.46c-1.96 0-3.07 1.87-3.45 3.54l-1.67 15.77a11.34 11.34 0 0 1 7.12-2.49h38.38c2.73 0 5.25.96 7.2 2.56zm-51.76 22.75h-.07c-.1.5-.16 1.01-.16 1.54 0 4.3 3.58 7.86 8.09 7.86h38.38a7.97 7.97 0 0 0 8.09-7.86c0-4.3-3.57-7.86-8.09-7.86h-38.38a8.05 8.05 0 0 0-7.8 5.78zm11.44 7.1c-3.23 0-6.4-2.21-6.4-5.56 0-3.35 3.17-5.56 6.4-5.56h31.09c3.23 0 6.4 2.21 6.4 5.56 0 3.35-3.17 5.56-6.4 5.56zm0-7.97c-2.1 0-3.26 1.36-3.26 2.41s1.16 2.41 3.26 2.41h31.09c2.1 0 3.26-1.36 3.26-2.41s-1.16-2.41-3.26-2.41zm173.71.64l-.03-.24a8.06 8.06 0 0 0-7.74-5.58h-38.38a8.06 8.06 0 0 0-7.77 5.66l-.02.18h-.03a7.64 7.64 0 0 0-.27 2.02c0 4.3 3.58 7.86 8.09 7.86h38.38a7.98 7.98 0 0 0 8.09-7.86c0-.7-.1-1.4-.28-2.04zm-1-8.7c-.5.36-1.02.69-1.58.97.65.34 1.26.73 1.83 1.18zm-51.84.05l-.26 2.04c.55-.42 1.14-.8 1.76-1.11a11.3 11.3 0 0 1-1.5-.93zm-2.79-2.93a10.8 10.8 0 0 1-1.41-8.6l2.34-22.07s.07-.45.26-1.02c.92-2.82 3.04-5.2 6.29-5.2h42.45c3.52 0 6 3.02 6.55 6.22l2.4 22.64a10.9 10.9 0 0 1-1.44 7.87l1.25 10.85c.26.93.4 1.91.4 2.93 0 6.12-5.07 11.01-11.23 11.01h-38.38a11.12 11.12 0 0 1-11.23-11.01c0-1 .14-1.97.39-2.89zm55.79-7.45v-.04a8.03 8.03 0 0 0-7.93-6.28h-38.38a8.05 8.05 0 0 0-7.8 5.78l-.06.54h-.07c-.1.5-.16 1.01-.16 1.54 0 4.3 3.58 7.86 8.09 7.86h38.38a7.98 7.98 0 0 0 8.09-7.86c0-.53-.05-1.04-.16-1.54zm-2.41-22.75c-.38-1.67-1.49-3.54-3.45-3.54h-42.45c-1.96 0-3.07 1.87-3.45 3.54l-1.67 15.77a11.34 11.34 0 0 1 7.12-2.49h38.38c2.73 0 5.24.96 7.2 2.56zm-40.32 29.85c-3.23 0-6.4-2.21-6.4-5.56 0-3.35 3.17-5.56 6.4-5.56h31.09c3.23 0 6.39 2.21 6.39 5.56 0 3.35-3.16 5.56-6.39 5.56zm0-7.97c-2.1 0-3.26 1.36-3.26 2.41s1.16 2.41 3.26 2.41h31.09c2.1 0 3.26-1.36 3.26-2.41s-1.16-2.41-3.26-2.41zm0 27.5c-3.23 0-6.4-2.21-6.4-5.56 0-3.35 3.17-5.56 6.4-5.56h31.09c3.23 0 6.39 2.21 6.39 5.56 0 3.35-3.16 5.56-6.39 5.56zm0-7.97c-2.1 0-3.26 1.36-3.26 2.41s1.16 2.41 3.26 2.41h31.09c2.1 0 3.26-1.36 3.26-2.41s-1.16-2.41-3.26-2.41zm-23.24-19.1l-.03-.24a8.06 8.06 0 0 0-7.74-5.58h-38.38a8.06 8.06 0 0 0-7.77 5.66l-.02.18h-.03a7.64 7.64 0 0 0-.27 2.02 7.98 7.98 0 0 0 8.09 7.85h38.38a7.98 7.98 0 0 0 8.09-7.85c0-.7-.1-1.4-.28-2.04zm-1-8.71c-.5.37-1.02.7-1.57.98.64.33 1.25.72 1.82 1.17zm-51.84.06l-.26 2.03c.55-.42 1.13-.8 1.75-1.11a11.3 11.3 0 0 1-1.49-.92zm-2.79-2.93a10.81 10.81 0 0 1-1.41-8.61l2.33-22.07s.08-.44.27-1.02c.92-2.81 3.04-5.2 6.29-5.2h42.45c3.52 0 6 3.03 6.55 6.22l2.4 22.65a10.88 10.88 0 0 1-1.44 7.87l1.25 10.84a10.86 10.86 0 0 1-1.25 8.68l1.25 10.81c.26.93.4 1.91.4 2.93 0 6.13-5.07 11.02-11.23 11.02h-38.38a11.13 11.13 0 0 1-11.23-11.02c0-1 .14-1.97.39-2.89l1.36-10.69a10.8 10.8 0 0 1-1.36-8.8zm55.63 31.06l-.03-.24a8.06 8.06 0 0 0-7.74-5.57h-38.38a8.06 8.06 0 0 0-7.77 5.65l-.02.18h-.03a7.62 7.62 0 0 0-.27 2.02c0 4.3 3.58 7.86 8.09 7.86h38.38a7.98 7.98 0 0 0 8.09-7.86c0-.7-.1-1.4-.28-2.04zm-1-8.66c-.48.36-1 .68-1.53.96.63.33 1.23.71 1.78 1.15zm-51.84.06l-.26 2c.54-.42 1.1-.79 1.71-1.1-.5-.26-1-.57-1.45-.9zm53-29.91v-.05a8.04 8.04 0 0 0-7.93-6.27h-38.38a8.06 8.06 0 0 0-7.8 5.77l-.06.55h-.07c-.1.49-.16 1-.16 1.53 0 4.3 3.58 7.86 8.09 7.86h38.38a7.98 7.98 0 0 0 8.09-7.86c0-.52-.05-1.03-.15-1.53zm-2.41-22.75c-.38-1.68-1.49-3.54-3.45-3.54h-42.45c-1.96 0-3.07 1.86-3.45 3.54l-1.67 15.77a11.34 11.34 0 0 1 7.12-2.5h38.38c2.73 0 5.24.96 7.2 2.56zm-40.32 29.85c-3.23 0-6.4-2.22-6.4-5.56 0-3.35 3.17-5.57 6.4-5.57h31.08c3.24 0 6.4 2.22 6.4 5.57 0 3.34-3.16 5.56-6.4 5.56zm0-7.97c-2.1 0-3.26 1.35-3.26 2.41 0 1.05 1.16 2.4 3.26 2.4h31.08c2.11 0 3.26-1.35 3.26-2.4 0-1.06-1.15-2.41-3.26-2.41zm0 27.5c-3.23 0-6.4-2.22-6.4-5.56 0-3.35 3.17-5.57 6.4-5.57h31.08c3.24 0 6.4 2.22 6.4 5.57 0 3.34-3.16 5.56-6.4 5.56zm0-7.97c-2.1 0-3.26 1.35-3.26 2.41 0 1.05 1.16 2.4 3.26 2.4h31.08c2.11 0 3.26-1.35 3.26-2.4 0-1.06-1.15-2.41-3.26-2.41zm0 27.46c-3.23 0-6.4-2.22-6.4-5.57s3.17-5.56 6.4-5.56h31.08c3.24 0 6.4 2.21 6.4 5.56 0 3.35-3.16 5.57-6.4 5.57zm0-7.98c-2.1 0-3.26 1.36-3.26 2.41 0 1.06 1.16 2.41 3.26 2.41h31.08c2.11 0 3.26-1.35 3.26-2.41 0-1.05-1.15-2.41-3.26-2.41z" transform="translate(-1440 -3944)"/></svg>