<svg xmlns="http://www.w3.org/2000/svg" viewBox="0 0 480 480">
<g>
  <g>
    <path d="M459.344,66.4L357.056,33.256c-2.449-0.846-5.025-1.271-7.616-1.256H348L326.4,3.2c-1.299-1.732-3.244-2.863-5.392-3.136c-0.337,0-0.674,0.024-1.008,0.072V0H160v0.136c-0.334-0.048-0.671-0.072-1.008-0.072c-2.148,0.273-4.093,1.404-5.392,3.136L132,32h-1.44c-2.524-0.02-5.033,0.382-7.424,1.192L20.184,66.56C7.968,71.33-0.054,83.126,0,96.24V224c0,4.418,3.582,8,8,8h72v240c0,4.418,3.582,8,8,8h304c4.418,0,8-3.582,8-8V232h72c4.418,0,8-3.582,8-8V96.24C480.005,82.961,471.775,71.071,459.344,66.4zM333.184,38.912l-60.856,54.096L252,72.664L318.576,19.4L333.184,38.912zM297.2,16L240,61.76L182.8,16H297.2zM161.448,19.36L228,72.664l-20.352,20.344l-60.832-54.096L161.448,19.36z M464,216h-64v-48h-16v296H96V168H80v48H16V96.24c-0.065-6.375,3.727-12.158,9.6-14.64l102.656-33.256c0.744-0.239,1.522-0.355,2.304-0.344h2.4l69.728,61.984c3.168,2.815,7.982,2.671,10.976-0.328L240,83.312l26.344,26.344c2.994,2.999,7.808,3.143,10.976,0.328L347.048,48h2.4c0.849-0.007,1.693,0.131,2.496,0.408l102,33.032c6.086,2.385,10.08,8.264,10.056,14.8V216z"></path>
  </g>
</g>
</svg>