<svg xmlns="http://www.w3.org/2000/svg" width="84" height="84" viewBox="0 0 84 84"><defs><linearGradient id="a" x1="362.57" x2="446.57" y1="4352.22" y2="4404.7" gradientUnits="userSpaceOnUse"><stop offset="0" stop-color="#86add3"/><stop offset="1" stop-color="#9fcef6"/></linearGradient></defs><path fill="#d2ddeb" d="M71.4 71.4a7 7 0 0 0 7-7V25.2h4.2c.77 0 1.4-.63 1.4-1.4v-5.6c0-.77-.63-1.4-1.4-1.4h-4.2v-7h1.4a1.4 1.4 0 0 0 0-2.8H63a1.4 1.4 0 0 0 0 2.8h1.4v7H56v-7h1.4a1.4 1.4 0 0 0 0-2.8H40.6a1.4 1.4 0 0 0 0 2.8H42v7h-8.4v-7H35A1.4 1.4 0 0 0 35 7H18.2a1.4 1.4 0 0 0 0 2.8h1.4v7h-7c-1.43 0-2.85.25-4.2.73V1.4C8.4.63 7.77 0 7 0H1.4C.63 0 0 .63 0 1.4v81.2c0 .77.63 1.4 1.4 1.4h81.2c.77 0 1.4-.63 1.4-1.4a7 7 0 0 0-7-7H16.7a9.82 9.82 0 0 0-8.3-8.3V29.4a4.2 4.2 0 0 1 4.2-4.2h7v39.2a7 7 0 0 0 14 0V25.2H42v39.2a7 7 0 0 0 14 0V25.2h8.4v39.2a7 7 0 0 0 7 7zm0-2.8a4.2 4.2 0 0 1-4.2-4.2V46.2h8.4v18.2a4.2 4.2 0 0 1-4.2 4.2zm9.8-46.2h-2.8v-2.8h2.8zm-5.6 21h-8.4V9.8h8.4zM53.2 35h-8.4V9.8h8.4zM30.8 46.2h-8.4V9.8h8.4zm50.16 35H16.8v-2.8H77a4.2 4.2 0 0 1 3.96 2.8zM14 77v4.2H2.8V70H7a7 7 0 0 1 7 7zm-1.4-54.6a7 7 0 0 0-7 7v37.8H2.8V2.8h2.8v16.92a1.4 1.4 0 0 0 2.1 1.21 9.75 9.75 0 0 1 4.9-1.33h7v2.8zm14 46.2a4.2 4.2 0 0 1-4.2-4.2V49h8.4v15.4a4.2 4.2 0 0 1-4.2 4.2zm7-46.2v-2.8H42v2.8zM49 68.6a4.2 4.2 0 0 1-4.2-4.2V37.8h8.4v26.6a4.2 4.2 0 0 1-4.2 4.2zm7-46.2v-2.8h8.4v2.8z"/><path fill="url(#a)" d="M411.4 4403.4a7 7 0 0 0 7-7v-39.2h4.2c.77 0 1.4-.63 1.4-1.4v-5.6c0-.77-.63-1.4-1.4-1.4h-4.2v-7h1.4a1.4 1.4 0 0 0 0-2.8H403a1.4 1.4 0 0 0 0 2.8h1.4v7H396v-7h1.4a1.4 1.4 0 0 0 0-2.8h-16.8a1.4 1.4 0 0 0 0 2.8h1.4v7h-8.4v-7h1.4a1.4 1.4 0 0 0 0-2.8h-16.8a1.4 1.4 0 0 0 0 2.8h1.4v7h-7c-1.43 0-2.85.25-4.2.73v-16.13c0-.77-.63-1.4-1.4-1.4h-5.6c-.77 0-1.4.63-1.4 1.4v81.2c0 .77.63 1.4 1.4 1.4h81.2c.77 0 1.4-.63 1.4-1.4a7 7 0 0 0-7-7h-60.3a9.82 9.82 0 0 0-8.3-8.3v-37.9a4.2 4.2 0 0 1 4.2-4.2h7v39.2a7 7 0 0 0 14 0v-39.2h8.4v39.2a7 7 0 0 0 14 0v-39.2h8.4v39.2a7 7 0 0 0 7 7zm0-2.8a4.2 4.2 0 0 1-4.2-4.2v-18.2h8.4v18.2a4.2 4.2 0 0 1-4.2 4.2zm9.8-46.2h-2.8v-2.8h2.8zm-5.6 21h-8.4v-33.6h8.4zm-22.4-8.4h-8.4v-25.2h8.4zm-22.4 11.2h-8.4v-36.4h8.4zm50.16 35H356.8v-2.8H417a4.2 4.2 0 0 1 3.96 2.8zM354 4409v4.2h-11.2V4402h4.2a7 7 0 0 1 7 7zm-1.4-54.6a7 7 0 0 0-7 7v37.8h-2.8v-64.4h2.8v16.92a1.4 1.4 0 0 0 2.1 1.21 9.75 9.75 0 0 1 4.9-1.33h7v2.8zm14 46.2a4.2 4.2 0 0 1-4.2-4.2V4381h8.4v15.4a4.2 4.2 0 0 1-4.2 4.2zm7-46.2v-2.8h8.4v2.8zm15.4 46.2a4.2 4.2 0 0 1-4.2-4.2v-26.6h8.4v26.6a4.2 4.2 0 0 1-4.2 4.2zm7-46.2v-2.8h8.4v2.8z" transform="translate(-340 -4332)"/></svg>