<svg xmlns="http://www.w3.org/2000/svg" xmlns:xlink="http://www.w3.org/1999/xlink" width="94" height="86" viewBox="0 0 94 86"><defs><path id="a" d="M1202 4369a42.65 42.65 0 0 1-12.61 30.4 42.85 42.85 0 0 1-30.48 12.6 42.85 42.85 0 0 1-30.48-12.6 42.67 42.67 0 0 1-12.63-30.4v-.48l-3.83 3.82c-.91.9-2.38.9-3.29 0a2.31 2.31 0 0 1 0-3.28l7.8-7.78c.9-.9 2.37-.9 3.28 0l7.78 7.78a2.31 2.31 0 0 1-1.65 3.95c-.59 0-1.19-.23-1.64-.67l-3.83-3.82v.48a38.46 38.46 0 0 0 38.47 38.37 38.46 38.46 0 0 0 38.47-38.37 38.43 38.43 0 0 0-38.47-38.35 38.25 38.25 0 0 0-27.54 11.57c-.91.91-2.38.93-3.29.04a2.33 2.33 0 0 1-.04-3.28 42.84 42.84 0 0 1 30.87-12.98 42.85 42.85 0 0 1 30.48 12.6A42.67 42.67 0 0 1 1202 4369zm-27.48-15.66c.91.9.91 2.37 0 3.27l-28.51 28.44a2.4 2.4 0 0 1-1.64.68 2.31 2.31 0 0 1-1.65-3.96l28.51-28.42c.91-.9 2.38-.9 3.29-.01zm-4.88 16.72a8.29 8.29 0 1 1-5.88 14.14 8.29 8.29 0 0 1 5.88-14.14zm2.59 5.71a3.7 3.7 0 0 0-5.18 0 3.65 3.65 0 1 0 5.18 5.17 3.63 3.63 0 0 0 0-5.17zm-18.14-22.05a8.23 8.23 0 0 1 0 11.73 8.3 8.3 0 1 1 0-11.73zm-2.22 5.87a3.63 3.63 0 0 0-3.66-3.65 3.65 3.65 0 1 0 0 7.29 3.61 3.61 0 0 0 3.66-3.64z"/><linearGradient id="b" x1="1108" x2="1202" y1="4340" y2="4398" gradientUnits="userSpaceOnUse"><stop offset="0" stop-color="#86add3"/><stop offset="1" stop-color="#9fcef6"/></linearGradient></defs><desc>Generated with Avocode.</desc><g transform="translate(-1108 -4326)"><use fill="#d2ddeb" xlink:href="#a"/><use fill="url(#b)" xlink:href="#a"/></g></svg>