<svg xmlns="http://www.w3.org/2000/svg" xmlns:xlink="http://www.w3.org/1999/xlink" width="84" height="85" viewBox="0 0 84 85"><defs><path id="a" d="M1537.47 4414.89a1.07 1.07 0 0 1-.27-.16l-.09-.05c-.1-.09-.19-.18-.26-.29l-40.59-59.48a1.42 1.42 0 0 1 .16-1.81l14-14.16c.26-.27.61-.42.99-.42h16.79c.78 0 1.4.64 1.4 1.42a1.4 1.4 0 0 1-1.4 1.42h-16.21l-12.77 12.91 35.69 52.3-12.01-51.05h-18.49a1.4 1.4 0 0 1-1.4-1.42c0-.78.62-1.41 1.4-1.41h16.21l-6-6.08a1.43 1.43 0 0 1 0-2.01 1.38 1.38 0 0 1 1.97 0l7.99 8.09h26.84l7.99-8.09a1.4 1.4 0 0 1 1.98 0c.54.56.54 1.45 0 2.01l-6.01 6.08h16.21c.78 0 1.4.63 1.4 1.41a1.4 1.4 0 0 1-1.4 1.42h-18.49l-12.01 51.05 35.69-52.3-12.76-12.91h-16.22c-.77 0-1.4-.64-1.4-1.42 0-.78.63-1.42 1.4-1.42h16.8c.37 0 .72.15.99.42l13.99 14.16c.48.49.55 1.25.17 1.81l-40.6 59.48c-.07.11-.16.2-.26.29l-.08.05c-.09.07-.18.12-.28.16l-.11.04c-.14.04-.28.07-.42.07-.14 0-.28-.03-.41-.07l-.12-.04zm-11.69-59.37l12.22 51.95 12.23-51.95zm21.61-25.08c.47.48.54 1.23.17 1.79l-5.08 7.71 5.08 7.71c.37.56.3 1.31-.17 1.79a1.4 1.4 0 0 1-1.77.18l-7.62-5.15-7.62 5.15a1.4 1.4 0 0 1-1.77-.18 1.44 1.44 0 0 1-.17-1.79l5.08-7.71-5.08-7.71c-.37-.56-.3-1.31.17-1.79a1.4 1.4 0 0 1 1.77-.18l7.62 5.15 7.62-5.15a1.4 1.4 0 0 1 1.77.18zm-7.75 8.72l1.71-2.61-2.57 1.74c-.47.31-1.09.31-1.56 0l-2.57-1.74 1.72 2.61c.31.47.31 1.09 0 1.57l-1.72 2.6 2.57-1.74c.24-.15.51-.23.78-.23s.54.08.78.23l2.57 1.74-1.71-2.6a1.4 1.4 0 0 1 0-1.57z"/><linearGradient id="b" x1="1496.01" x2="1580.01" y1="4346" y2="4399.02" gradientUnits="userSpaceOnUse"><stop offset="0" stop-color="#86add3"/><stop offset="1" stop-color="#9fcef6"/></linearGradient></defs><desc>Generated with Avocode.</desc><g transform="translate(-1496 -4330)"><use fill="#d2ddeb" xlink:href="#a"/><use fill="url(#b)" xlink:href="#a"/></g></svg>