<svg xmlns="http://www.w3.org/2000/svg" width="85" height="91" viewBox="0 0 85 91"><defs><linearGradient id="a" x1="744.83" x2="829.8" y1="4350.78" y2="4403.88" gradientUnits="userSpaceOnUse"><stop offset="0" stop-color="#86add3"/><stop offset="1" stop-color="#9fcef6"/></linearGradient></defs><path fill="#d2ddeb" d="M63.73 56.12c0-.84-.68-1.52-1.52-1.52h-9.1a1.52 1.52 0 0 0 0 3.03h9.1c.84 0 1.52-.68 1.52-1.51zm-6.07-39.44V9.1a1.52 1.52 0 1 0-3.04 0v7.58a7.6 7.6 0 0 0 7.59 7.59h13.66v28.81a1.52 1.52 0 1 0 3.03 0V22.75c0-.84-.68-1.52-1.52-1.52H62.21a4.56 4.56 0 0 1-4.55-4.55zM62.2 36.4H50.07a1.52 1.52 0 0 0 0 3.03h12.14a1.52 1.52 0 1 0 0-3.03zm-16.69 1.52c0-.84-.68-1.52-1.52-1.52h-9.1a1.52 1.52 0 0 0 0 3.03H44c.84 0 1.52-.68 1.52-1.51zm-12.14 9.1c0 .83.68 1.51 1.52 1.51h3.03a1.52 1.52 0 1 0 0-3.03H34.9c-.84 0-1.52.68-1.52 1.52zm1.52-16.69h15.17a1.52 1.52 0 1 0 0-3.03H34.9a1.52 1.52 0 0 0 0 3.03zm9.1 18.2h15.17a1.52 1.52 0 1 0 0-3.03H44a1.52 1.52 0 0 0 0 3.03zm9.1 15.17a1.52 1.52 0 0 0 0 3.03h3.04a1.52 1.52 0 1 0 0-3.03zm-6.06-9.1H34.9a1.52 1.52 0 0 0 0 3.03h12.14a1.52 1.52 0 1 0 0-3.03zm0 9.1H34.9a1.52 1.52 0 0 0 0 3.03h12.14a1.52 1.52 0 1 0 0-3.03zm36.12-1.23l-3.03-3.03a5.7 5.7 0 0 0-8.22 0L52.03 79.31a1.5 1.5 0 0 0-.44 1.07v9.1c0 .84.68 1.52 1.52 1.52h9.1c.4 0 .79-.16 1.07-.44l19.88-19.88a5.55 5.55 0 0 0 0-8.21zm-13.2 3.22l2.4 2.41-13.19 13.17-2.4-2.4zM54.61 87.97v-6.96l6.96 6.96zm9.1-2.15l-2.4-2.4L74.5 70.24l2.41 2.41zm17.3-17.28l-1.96 1.96-6.96-6.95 1.96-1.97c1.2-1.19 2.72-1.2 3.92 0l3.04 3.04c1.22 1.23 1.22 2.69 0 3.92zM47.04 87.97H7.59a4.56 4.56 0 0 1-4.56-4.55V7.58A4.56 4.56 0 0 1 7.6 3.03H55.5l14.73 14.73a1.52 1.52 0 0 0 2.15-2.15L57.2.44A1.53 1.53 0 0 0 56.14 0H7.6A7.6 7.6 0 0 0 0 7.58v75.84A7.6 7.6 0 0 0 7.6 91h39.45a1.52 1.52 0 0 0 0-3.03zm0-15.17H34.9a1.52 1.52 0 0 0 0 3.03h12.14a1.52 1.52 0 1 0 0-3.03zM27.3 28.82c0-.84-.68-1.52-1.52-1.52h-9.1c-.84 0-1.52.68-1.52 1.52v9.1c0 .83.68 1.51 1.52 1.51h9.1c.84 0 1.52-.68 1.52-1.51zm-3.03 7.58H18.2v-6.07h6.07zm-7.59 39.43h9.1c.84 0 1.52-.68 1.52-1.51v-9.1c0-.84-.68-1.52-1.52-1.52h-9.1c-.84 0-1.52.68-1.52 1.52v9.1c0 .83.68 1.51 1.52 1.51zm1.52-9.1h6.07v6.07H18.2zm.44-9.54c.29.28.68.44 1.08.44h.15c.45-.05.86-.29 1.1-.67l6.08-9.1c.46-.7.27-1.64-.42-2.11a1.53 1.53 0 0 0-2.1.42l-5.05 7.57-1.73-1.73a1.52 1.52 0 0 0-2.14 2.15z"/><path fill="url(#a)" d="M785.73 4383.12c0-.84-.68-1.52-1.52-1.52h-9.1a1.52 1.52 0 0 0 0 3.03h9.1c.84 0 1.52-.68 1.52-1.51zm-6.07-39.44v-7.58a1.52 1.52 0 1 0-3.04 0v7.58a7.6 7.6 0 0 0 7.59 7.59h13.66v28.81a1.52 1.52 0 1 0 3.03 0v-30.33c0-.84-.68-1.52-1.52-1.52h-15.17a4.56 4.56 0 0 1-4.55-4.55zm4.55 19.72h-12.14a1.52 1.52 0 0 0 0 3.03h12.14a1.52 1.52 0 1 0 0-3.03zm-16.69 1.52c0-.84-.68-1.52-1.52-1.52h-9.1a1.52 1.52 0 0 0 0 3.03h9.1c.84 0 1.52-.68 1.52-1.51zm-12.14 9.1c0 .83.68 1.51 1.52 1.51h3.03a1.52 1.52 0 1 0 0-3.03h-3.03c-.84 0-1.52.68-1.52 1.52zm1.52-16.69h15.17a1.52 1.52 0 1 0 0-3.03H756.9a1.52 1.52 0 0 0 0 3.03zm9.1 18.2h15.17a1.52 1.52 0 1 0 0-3.03H766a1.52 1.52 0 0 0 0 3.03zm9.1 15.17a1.52 1.52 0 0 0 0 3.03h3.04a1.52 1.52 0 1 0 0-3.03zm-6.06-9.1H756.9a1.52 1.52 0 0 0 0 3.03h12.14a1.52 1.52 0 1 0 0-3.03zm0 9.1H756.9a1.52 1.52 0 0 0 0 3.03h12.14a1.52 1.52 0 1 0 0-3.03zm36.12-1.23l-3.03-3.03a5.7 5.7 0 0 0-8.22 0l-19.88 19.87a1.5 1.5 0 0 0-.44 1.07v9.1c0 .84.68 1.52 1.52 1.52h9.1c.4 0 .79-.16 1.07-.44l19.88-19.88a5.55 5.55 0 0 0 0-8.21zm-13.2 3.22l2.4 2.41-13.19 13.17-2.4-2.4zm-15.34 22.28v-6.96l6.96 6.96zm9.1-2.15l-2.4-2.4 13.18-13.18 2.41 2.41zm17.3-17.28l-1.96 1.96-6.96-6.95 1.96-1.97c1.2-1.19 2.72-1.2 3.92 0l3.04 3.04c1.22 1.23 1.22 2.69 0 3.92zm-33.98 19.43h-39.45a4.56 4.56 0 0 1-4.56-4.55v-75.84a4.56 4.56 0 0 1 4.56-4.55h47.92l14.73 14.73a1.52 1.52 0 0 0 2.15-2.15l-15.18-15.17a1.53 1.53 0 0 0-1.07-.44H729.6a7.6 7.6 0 0 0-7.59 7.58v75.84a7.6 7.6 0 0 0 7.59 7.58h39.45a1.52 1.52 0 0 0 0-3.03zm0-15.17H756.9a1.52 1.52 0 0 0 0 3.03h12.14a1.52 1.52 0 1 0 0-3.03zm-19.73-43.98c0-.84-.68-1.52-1.51-1.52h-9.1c-.85 0-1.53.68-1.53 1.52v9.1c0 .83.68 1.51 1.52 1.51h9.1c.84 0 1.52-.68 1.52-1.51zm-3.03 7.58h-6.07v-6.07h6.07zm-7.59 39.43h9.1c.84 0 1.52-.68 1.52-1.51v-9.1c0-.84-.68-1.52-1.52-1.52h-9.1c-.84 0-1.52.68-1.52 1.52v9.1c0 .83.68 1.51 1.52 1.51zm1.52-9.1h6.07v6.07h-6.07zm.44-9.54c.29.28.68.44 1.08.44h.15c.45-.05.86-.29 1.1-.67l6.08-9.1c.46-.7.27-1.64-.42-2.11a1.53 1.53 0 0 0-2.1.42l-5.05 7.57-1.73-1.73a1.52 1.52 0 0 0-2.14 2.15z" transform="translate(-722 -4327)"/></svg>